<svg viewBox="0 0 255.33 240.28" xmlns="http://www.w3.org/2000/svg"><path d="m227.13 173.07c-83.14 46-101.82 34.37-190.47.16-41.39-16-50.9-66.63-12.08-88.11 83.14-46 99.17-23.23 191.28.1 51.14 12.95 50.08 66.37 11.27 87.85z" fill="#e6e7e8"/><g fill="#fff"><path d="m69.4 42.8c.15 2.67.77 5.31 1.28 8.65 23.23-14.87 47.6-15.45 72.79-10.74a68.31 68.31 0 0 0 -6-21 23.4 23.4 0 0 0 -16.87-13.59 37.89 37.89 0 0 0 -16.22-.26c-5.78 1.14-11.5 2.75-17.32 3.68-8 1.28-12.76 6.17-15.7 13.24-2.69 6.45-2.36 13.22-1.96 20.02z"/><path d="m54.17 84.94c-1.67 1.49-2.09 6-.75 8.07 1.55 2.39 3.25 2.78 6.75 1.45-.52-2.83-.88-5.38-1.48-7.86s-2.77-3.22-4.52-1.66z"/><path d="m65.71 79.68c4.45.84 8.81.66 12.8-2.12 4.17-2.9 7-6.89 9.95-10.86l1.21-1.64c4.93-6.59 9.94-13.21 18.08-16 6.29-2.17 12.74-2.46 18.67 1.4 3.59 2.34 7.07 4.86 10.61 7.27 1 .66 1.94 1.31 2.93 1.95a43.12 43.12 0 0 0 8.34 4.32 6.49 6.49 0 0 0 7.87-2.83 8.83 8.83 0 0 0 .65-7.14 8.51 8.51 0 0 0 -2.41-3.5 21.07 21.07 0 0 0 -6.49-4.14 72.27 72.27 0 0 0 -29.15-4.76c-1.58 0-3.17-.06-4.75 0-15.38.65-29.9 4-42.47 13.49-5.55 4.24-9.25 9.52-10.37 16.37v.26c-.6 4.09 1.22 7.25 4.53 7.93z"/><path d="m124.28 103.37-10.63 2.63 7.19 7z"/><path d="m168.69 68.15c-.41-1.55-1.31-2.57-3-2.43a2.36 2.36 0 0 0 -2.34 2.91c.19 1.94.46 3.88.76 6.3 4.1-1.86 5.33-3.93 4.58-6.78z"/><path d="m166.56 120c6.32.06 11-3.84 14.61-9.41a7.9 7.9 0 0 0 1.2-4.83c-.55-4.32-3.69-6.62-7.5-8a8.5 8.5 0 0 0 -9.53 2 23.61 23.61 0 0 0 -6.67 11.83c-.99 4.41 2.7 8.64 7.89 8.41z"/></g><path d="m148.15 97.47c-4.92 1.88-10.19 2.81-15.6 4.24.22 4.61.43 9 .66 13.67l21.66-3.84 5.65-11.8a5.09 5.09 0 0 0 -.93-.73c-3.59-1.83-7.09-3.2-11.44-1.54z" fill="#e6e7e8"/><path d="m97.51 105.43c9.35-1.51 18.6-3.72 27.85-5.86 7.42-1.71 14.79-3.62 22.12-5.67 6.51-1.82 10-6.38 10.85-13.06a8.13 8.13 0 0 1 .58-2.94c2.47-4.32.92-8.5.1-12.46-2.93 1-5.61 2.5-8.3 2.51-2.87 0-5.75-1.42-8.06-2.06-12.17 8.71-24.87 10.11-38.59 5.19.1 1.24.18 2.09.22 2.93.21 4.3-1.21 5.5-5.39 4.47a11.75 11.75 0 0 1 -2.8-1.09c-2.6-1.44-5.15-3-7.72-4.45-8.24 8.35-10.37 12.16-26.37 9.78.49 4.05.33 8.15 2.18 11.79 3.44 6.78 9.11 10.85 16.65 11.41a72 72 0 0 0 16.68-.49zm10.88-12.75a62.06 62.06 0 0 1 10.2-3.07c2.87-.5 5.9-.1 9.05-.1.24 3-1.38 2.92-3 3.08-3.54.36-7.08.77-10.57 1.39a21.13 21.13 0 0 0 -4.38 1.7c-1.17.5-2.49 1.49-3.27-.25s.92-2.37 1.97-2.75z" fill="#fff"/><path d="m188.06 171.21a267.78 267.78 0 0 0 -11.5-36.13c-1.65-4.09-3.77-8-5.34-11.3-3.84-.42-7.17 0-9.68-1.27s-4.5-4.2-7.07-6.77c-16.18 1.84-32.67 4.4-47.87 12.12 3.19 10.22 3.09 10.51-5.6 16.89 7.25 22.71 14.74 45.39 19.44 69a46.05 46.05 0 0 0 3.33-5.17c1.68-2.68 2.55-2.91 5.28-1.44 1.26.68 2.39 1.62 3.65 2.32a28.65 28.65 0 0 0 3 1.3c2.48-2.11 1.05-5.9 4.73-7.18l7.85 5.47a27.39 27.39 0 0 0 2.71-4.17c1-2.34 2.67-2.55 4.56-1.77 2.74 1.11 5.35 2.51 8.45 4 .85-1.42 2-3 2.84-4.81 1.84-3.84 2.39-4 5.76-1.19 1 .83 1.94 1.73 3 2.49 2 1.42 2.79 1.2 4-1 .21-.38.33-.8.52-1.18 3-6.13 2.95-6.08 9.2-3.19 1.71.79 3.22 2.28 5.73 2.14-.6-3.6-.94-6.88-1.74-10-1.66-6.47-3.68-12.76-5.25-19.16z" fill="#fff"/><path d="m81.18 162.07c1.39 11.63 1.12 23.31 1.18 35 0 1.39.19 2.76.31 4.45l13.09-3c-2.72-15-6-29.5-9.29-44.78-2.57 3.01-5.73 4.65-5.29 8.33z" fill="#e6e7e8"/><path d="m111.53 192.28c-2.49-9.58-5.38-19.06-8.18-28.56-1.81-6.18-3.76-12.32-5.68-18.59a22.17 22.17 0 0 0 -2.5-.26c-5.44.2-6.21 1-5.21 6.48 1.48 8.06 2.9 16.13 4.75 24.1 2.78 12 5.48 24.08 6.89 36.39.48 4.2 1.47 8.35 2.22 12.53l.54-.05c.87-4 1.74-8 2.75-12.61l8.61 4.25a12.79 12.79 0 0 0 .2-3c-1.4-6.96-2.61-13.87-4.39-20.68z" fill="#e6e7e8"/><path d="m97.4 141.69c3.39.09 7.23-2.38 7.21-4.91-.05-5.07-1.34-10.18-5.8-12.86-8.82-5.31-15.08-5.11-20.88 1.75-1 1.2-2.09 2.36-3.1 3.57-3.11 3.72-4.88 8.12-6.28 12.68-.48 1.57-1.09 2.55-3.1 1.89-.51-3.48 2.09-6.18 2.47-9.62l-4.79-1.83a53.9 53.9 0 0 0 -5.13 17.33c-.54 3.73.67 7 3 10 1.83 2.39 4.21 3.32 6.78 2.69a24.1 24.1 0 0 0 8.64-3.59 31.32 31.32 0 0 0 11.67-17.71c3.05.24 6.18.53 9.31.61z" fill="#fff"/><path d="m71.82 128.7c2.13-2.7 4.12-5.5 6.41-8a11.26 11.26 0 0 1 8-3.73c6.27-.27 12 1.36 16.7 5.7 2.29 2.1 2.3 2.09 5 .36-1.26-5.07-2.49-10-3.62-14.58-7.92.5-15.65.82-23.34 1.58a9.72 9.72 0 0 0 -5.62 2.73 57.17 57.17 0 0 0 -10.67 16.17l5.32 2.07c.78-1 1.3-1.64 1.82-2.3z" fill="#e6e7e8"/><path d="m107.74 107.1c.89 4 1.71 7.72 2.66 12l9.28-2.06c-2.28-2.43-3.83-4.3-5.62-5.91s-2.37-4.72-6.32-4.03z" fill="#fff"/><path d="m129.52 103.21-1-.21c-2.35 4.28-4.76 8.56-4.59 14.37l5.54-1.36z" fill="#fff"/><path d="m66.51 55.1a4.28 4.28 0 0 0 .66-3.1 61.3 61.3 0 0 1 -.61-23.59c.54-3.6 2.27-7 3.71-10.46a24.9 24.9 0 0 1 2.84-4.22l-.45-.91c-2.66.83-5.66 1.24-8.07 2.58-8.59 4.68-12.1 12.35-12.1 21.85 0 8.61 2.77 16.71 4.73 25 .3 1.28.74 2.53 1.09 3.69 2.87-3.79 5.63-7.25 8.2-10.84z" fill="#e6e7e8"/><path d="m136 11.36a24.74 24.74 0 0 1 6.68 12.33c1.55 6.24 3.47 12.39 5.38 19.13l7.54 3.57a19.77 19.77 0 0 0 0-2.59c-.82-5.26-1.44-10.57-2.58-15.77a38.19 38.19 0 0 0 -11.7-20.27c-4.69-4.31-10.38-5.54-17.65-4.82 2.07 1.14 3.36 1.69 4.47 2.48a69.71 69.71 0 0 1 7.86 5.94z" fill="#e6e7e8"/><g fill="#4c4c4e"><path d="m193.34 175.6c-1.49-5.84-3.56-11.55-5.45-17.28-2.84-8.6-5.62-17.23-8.71-25.74-1.34-3.7-3.39-7.15-5.17-10.8a22.85 22.85 0 0 0 9.4-8.29c4.09-6.27 2.21-13.66-4.39-17.2-5.49-2.95-10.86-3.52-16 .37-1.27-.53-2.35-.93-3.39-1.43s-2.15-1.18-3.07-1.69a96 96 0 0 0 5.07-9.26c1.22-2.94 2-5.51 5.63-6.85 4.34-1.63 5.91-6.35 4.45-10.4s-3.56-4.91-8.57-3.9c-.23 0-.52-.16-1.1-.37-.51-3.08-1-6.21-1.57-9.36-.48-2.89-1-5.8-1.42-8.73-1-6.1-1.5-12.29-2.75-18.33-1.56-7.49-5.73-13.8-10.63-19.52a18 18 0 0 0 -11.92-6.44 87.19 87.19 0 0 0 -27 1.69q-18.35 4-36.71 8a27.59 27.59 0 0 0 -12.47 6.57c-7.1 6.36-9.79 14.75-8.57 23.85 1.18 8.81 3.65 17.46 5.57 26.16.44 2 .9 4 1.35 6.06l1.81 8.07c-6.88 1.87-9.34 5.34-8.26 11.63a7.45 7.45 0 0 0 2 3.67c2.92 3 6.68 2.93 10.48 2 2.88 5.3 7.3 8.34 12.67 10.4-.87 1.12-1.34 1.86-1.94 2.47a62.91 62.91 0 0 0 -14.21 22.85c-2.12 5.93-4.15 11.85-4.11 18.38.07 10.76 9.51 17.13 19.37 12.73l3.71-1.62c2.09 14.35.9 28.43 1.45 42.73 6.33.07 11.68-3.83 17.79-2.36.31 1.57.69 3.11.9 4.66.94 7 1.74 14 2.78 21 .38 2.5.89 5.09 2.91 7.06 4-.88 4.44-5.51 7.75-7.47 2.09 1.25 4.17 2.51 6.26 3.73 3 1.72 3.62 1.52 5.69-1.22 1.45-1.92 3-3.75 4.72-5.87 2.38 1.46 4.42 2.75 6.49 4s3.16 1.05 4.52-1.23c.86-1.44 1.62-2.94 2.56-4.66 1.67.93 3 1.69 4.4 2.46 2.44 1.39 3.08 1.2 4.32-1.24.5-1 1-1.92 1.75-3.26l3.49 3.11c3 2.68 4.69 2.25 5.94-1.49.48-1.42 1-2.82 1.65-4.72l8.67 5.43 4.57-7.39 6.61 2.69 2.22-4.41c1.33.81 2.51 2.12 3.71 2.13 1.86 0 1.54-2.1 2-3.38.91-2.69 1.74-5.4 2.58-8 4.57.62 6.66-.71 6-3.84-1.8-8.82-3.63-17.53-5.83-26.15zm-27.65-109.88c1.7-.14 2.6.88 3 2.43.75 2.88-.49 4.92-4.59 6.78-.29-2.41-.56-4.36-.76-6.3a2.36 2.36 0 0 1 2.35-2.91zm-.33 34a8.5 8.5 0 0 1 9.53-2c3.81 1.43 6.95 3.72 7.5 8a7.9 7.9 0 0 1 -1.2 4.83c-3.57 5.57-8.3 9.47-14.61 9.41-5.2.2-8.88-4.05-7.88-8.49a23.61 23.61 0 0 1 6.65-11.75zm-5.78-.72a5.09 5.09 0 0 1 .93.73l-5.65 11.8-21.66 3.84c-.23-4.66-.44-9.06-.66-13.67 5.41-1.42 10.68-2.36 15.6-4.24 4.36-1.65 7.86-.28 11.44 1.54zm-18.26-91.24a38.19 38.19 0 0 1 11.68 20.24c1.14 5.19 1.76 10.5 2.58 15.77a19.77 19.77 0 0 1 0 2.59l-7.58-3.54c-1.91-6.74-3.82-12.89-5.38-19.13a24.74 24.74 0 0 0 -6.62-12.33 69.71 69.71 0 0 0 -7.85-5.93c-1.11-.79-2.39-1.34-4.47-2.48 7.25-.73 12.94.49 17.64 4.81zm-54.26 1.78c5.82-.93 11.54-2.54 17.32-3.69a37.89 37.89 0 0 1 16.22.26 23.4 23.4 0 0 1 16.82 13.64 68.31 68.31 0 0 1 6 21c-25.2-4.7-49.57-4.14-72.79 10.73-.51-3.33-1.13-6-1.28-8.65-.37-6.76-.73-13.57 2-20 2.96-7.12 7.65-12.01 15.71-13.29zm-29.84 52.66c-2-8.25-4.72-16.35-4.73-25 0-9.5 3.55-17.17 12.1-21.85 2.41-1.29 5.41-1.7 8.07-2.54l.45.91a24.9 24.9 0 0 0 -2.84 4.22c-1.43 3.41-3.16 6.86-3.71 10.46a61.3 61.3 0 0 0 .61 23.6 4.28 4.28 0 0 1 -.66 3.1c-2.57 3.59-5.33 7.05-8.2 10.79-.31-1.16-.79-2.4-1.09-3.69zm-3.8 30.8c-1.34-2.07-.92-6.58.75-8.07s3.92-.84 4.52 1.66 1 5 1.48 7.86c-3.5 1.34-5.17.95-6.75-1.45zm7.73-21.26c0-.08 0-.17 0-.26 1.15-6.84 4.85-12.12 10.4-16.29 12.58-9.54 27.09-12.85 42.45-13.5 1.58-.07 3.16 0 4.75 0a72.27 72.27 0 0 1 29.15 4.76 21.07 21.07 0 0 1 6.49 4.14 8.51 8.51 0 0 1 2.41 3.5 8.83 8.83 0 0 1 -.65 7.14 6.49 6.49 0 0 1 -7.85 2.77 43.12 43.12 0 0 1 -8.3-4.33c-1-.63-2-1.29-2.93-1.95-3.55-2.4-7-4.92-10.61-7.27-5.92-3.86-12.37-3.57-18.67-1.4-8.14 2.8-13.14 9.42-18.08 16l-1.25 1.65c-2.91 4-5.78 8-9.95 10.86-4 2.77-8.36 3-12.8 2.12-3.31-.68-5.13-3.84-4.56-7.94zm3 22.76c-1.81-3.64-1.65-7.73-2.15-11.78 16 2.38 18.12-1.43 26.36-9.77 2.57 1.49 5.12 3 7.72 4.45a11.75 11.75 0 0 0 2.8 1.09c4.18 1 5.6-.17 5.39-4.47 0-.85-.12-1.69-.22-2.93 13.72 4.93 26.42 3.52 38.59-5.19 2.32.65 5.19 2.08 8.06 2.06 2.69 0 5.38-1.56 8.3-2.51.82 4 2.38 8.14-.1 12.46a8.13 8.13 0 0 0 -.58 2.94c-.84 6.68-4.34 11.24-10.85 13.06-7.33 2.06-14.71 4-22.12 5.67-9.24 2.14-18.5 4.35-27.85 5.86a72 72 0 0 1 -16.68.49c-7.52-.58-13.19-4.65-16.63-11.42zm49.5 11.5 10.63-2.58-3.45 9.6zm6 11.06-9.28 2.06c-.95-4.25-1.77-8-2.66-12 3.94-.69 4.62 2.47 6.32 4s3.37 3.47 5.65 5.88zm8.89-14 1 .21v12.73l-5.54 1.37c-.19-5.81 2.21-10.09 4.57-14.37zm-53.11 9.64a9.72 9.72 0 0 1 5.62-2.7c7.69-.75 15.43-1.08 23.34-1.58 1.13 4.56 2.36 9.51 3.62 14.58-2.74 1.73-2.75 1.73-5-.36-4.73-4.34-10.43-6-16.7-5.7a11.26 11.26 0 0 0 -8 3.73c-2.29 2.55-4.28 5.35-6.41 8-.52.66-1 1.34-1.74 2.25l-5.32-2.07a57.17 57.17 0 0 1 10.59-16.15zm1 46.13a24.1 24.1 0 0 1 -8.64 3.59c-2.57.63-5-.3-6.78-2.69-2.33-3-3.54-6.32-3-10a53.9 53.9 0 0 1 5.14-17.32l4.79 1.83c-.38 3.44-3 6.13-2.47 9.62 2 .66 2.62-.32 3.1-1.89 1.4-4.56 3.17-9 6.28-12.68 1-1.21 2.08-2.37 3.1-3.57 5.81-6.86 12.06-7.06 20.88-1.75 4.46 2.68 5.75 7.79 5.8 12.86 0 2.53-3.81 5-7.21 4.91-3.13-.08-6.25-.36-9.33-.56a31.32 31.32 0 0 1 -11.68 17.65zm6.27 42.66c-.13-1.69-.3-3.06-.31-4.45-.07-11.67.21-23.35-1.18-35-.44-3.69 2.72-5.32 5.29-8.38 3.28 15.29 6.58 29.77 9.29 44.78zm33 14.46-8.61-4.25c-1 4.61-1.88 8.61-2.75 12.61l-.54.05c-.75-4.18-1.74-8.32-2.22-12.53-1.41-12.31-4.11-24.35-6.89-36.39-1.84-8-3.27-16-4.75-24.1-1-5.44-.23-6.29 5.21-6.48a22.17 22.17 0 0 1 2.5.26c1.92 6.27 3.87 12.41 5.68 18.59 2.79 9.5 5.68 19 8.18 28.56 1.77 6.81 3 13.76 4.39 20.65a12.79 12.79 0 0 1 -.18 3.08zm73.55-17.77c-6.25-2.9-6.23-2.94-9.2 3.19-.19.38-.31.81-.52 1.18-1.23 2.22-2 2.44-4 1-1-.76-2-1.66-3-2.49-3.37-2.81-3.93-2.65-5.76 1.19-.84 1.77-2 3.39-2.84 4.81-3.1-1.48-5.72-2.88-8.45-4-1.89-.78-3.59-.57-4.56 1.77a27.39 27.39 0 0 1 -2.71 4.17l-7.85-5.47c-3.68 1.28-2.25 5.07-4.73 7.18a28.65 28.65 0 0 1 -3-1.3c-1.26-.7-2.38-1.64-3.65-2.32-2.73-1.47-3.6-1.24-5.28 1.44a46.05 46.05 0 0 1 -3.33 5.17c-4.71-23.59-12.19-46.27-19.44-69 8.69-6.38 8.78-6.68 5.6-16.89 15.2-7.72 31.69-10.28 47.87-12.12 2.58 2.58 4.43 5.46 7.07 6.77s5.84.85 9.68 1.27c1.57 3.3 3.69 7.21 5.34 11.3a267.78 267.78 0 0 1 11.5 36.13c1.57 6.4 3.59 12.69 5.21 19.08.8 3.16 1.13 6.44 1.74 10-2.45.24-3.94-1.24-5.67-2.05z"/><path d="m145.17 233.06c-2 0-4.1 1.84-4.11 3.54a3.61 3.61 0 0 0 3.37 3.68c2.41.07 4.68-1.92 4.64-4.06-.07-1.6-1.97-3.17-3.9-3.16z"/><path d="m163.4 228.62c-.85 2.09-1.49 3.67.54 4.81 1.27.72 2.77.51 3.2-1 .76-2.65-1.59-2.82-3.74-3.81z"/><path d="m109.68 95.67a21.13 21.13 0 0 1 4.38-1.7c3.49-.62 7-1 10.57-1.39 1.63-.16 3.25-.07 3-3.08-3.16 0-6.18-.4-9.05.1a62.06 62.06 0 0 0 -10.2 3.07c-1.06.38-2.74 1-2 2.74s2.14.75 3.3.26z"/></g></svg>